<svg id="visual" viewBox="0 0 900 600" width="900" height="600" xmlns="http://www.w3.org/2000/svg" xmlns:xlink="http://www.w3.org/1999/xlink" version="1.1"><path d="M0 169L13.7 166C27.3 163 54.7 157 82 172C109.3 187 136.7 223 163.8 229C191 235 218 211 245.2 192C272.3 173 299.7 159 327 166C354.3 173 381.7 201 409 214C436.3 227 463.7 225 491 210C518.3 195 545.7 167 573 156C600.3 145 627.7 151 654.8 160C682 169 709 181 736.2 188C763.3 195 790.7 197 818 196C845.3 195 872.7 191 886.3 189L900 187L900 0L886.3 0C872.7 0 845.3 0 818 0C790.7 0 763.3 0 736.2 0C709 0 682 0 654.8 0C627.7 0 600.3 0 573 0C545.7 0 518.3 0 491 0C463.7 0 436.3 0 409 0C381.7 0 354.3 0 327 0C299.7 0 272.3 0 245.2 0C218 0 191 0 163.8 0C136.7 0 109.3 0 82 0C54.7 0 27.3 0 13.7 0L0 0Z" fill="#9c4557"></path><path d="M0 247L13.7 238C27.3 229 54.7 211 82 224C109.3 237 136.7 281 163.8 287C191 293 218 261 245.2 240C272.3 219 299.7 209 327 215C354.3 221 381.7 243 409 260C436.3 277 463.7 289 491 279C518.3 269 545.7 237 573 227C600.3 217 627.7 229 654.8 242C682 255 709 269 736.2 269C763.3 269 790.7 255 818 246C845.3 237 872.7 233 886.3 231L900 229L900 185L886.3 187C872.7 189 845.3 193 818 194C790.7 195 763.3 193 736.2 186C709 179 682 167 654.8 158C627.7 149 600.3 143 573 154C545.7 165 518.3 193 491 208C463.7 223 436.3 225 409 212C381.7 199 354.3 171 327 164C299.7 157 272.3 171 245.2 190C218 209 191 233 163.8 227C136.7 221 109.3 185 82 170C54.7 155 27.3 161 13.7 164L0 167Z" fill="#8d3548"></path><path d="M0 361L13.7 343C27.3 325 54.7 289 82 296C109.3 303 136.7 353 163.8 359C191 365 218 327 245.2 309C272.3 291 299.7 293 327 297C354.3 301 381.7 307 409 315C436.3 323 463.7 333 491 323C518.3 313 545.7 283 573 284C600.3 285 627.7 317 654.8 336C682 355 709 361 736.2 359C763.3 357 790.7 347 818 338C845.3 329 872.7 321 886.3 317L900 313L900 227L886.3 229C872.7 231 845.3 235 818 244C790.7 253 763.3 267 736.2 267C709 267 682 253 654.8 240C627.7 227 600.3 215 573 225C545.7 235 518.3 267 491 277C463.7 287 436.3 275 409 258C381.7 241 354.3 219 327 213C299.7 207 272.3 217 245.2 238C218 259 191 291 163.8 285C136.7 279 109.3 235 82 222C54.7 209 27.3 227 13.7 236L0 245Z" fill="#7e2539"></path><path d="M0 445L13.7 434C27.3 423 54.7 401 82 408C109.3 415 136.7 451 163.8 449C191 447 218 407 245.2 394C272.3 381 299.7 395 327 396C354.3 397 381.7 385 409 393C436.3 401 463.7 429 491 421C518.3 413 545.7 369 573 359C600.3 349 627.7 373 654.8 394C682 415 709 433 736.2 435C763.3 437 790.7 423 818 419C845.3 415 872.7 421 886.3 424L900 427L900 311L886.3 315C872.7 319 845.3 327 818 336C790.7 345 763.3 355 736.2 357C709 359 682 353 654.8 334C627.7 315 600.3 283 573 282C545.7 281 518.3 311 491 321C463.7 331 436.3 321 409 313C381.7 305 354.3 299 327 295C299.7 291 272.3 289 245.2 307C218 325 191 363 163.8 357C136.7 351 109.3 301 82 294C54.7 287 27.3 323 13.7 341L0 359Z" fill="#701c30"></path><path d="M0 475L13.7 468C27.3 461 54.7 447 82 454C109.3 461 136.7 489 163.8 486C191 483 218 449 245.2 439C272.3 429 299.7 443 327 450C354.3 457 381.7 457 409 463C436.3 469 463.7 481 491 467C518.3 453 545.7 413 573 405C600.3 397 627.7 421 654.8 443C682 465 709 485 736.2 489C763.3 493 790.7 481 818 479C845.3 477 872.7 485 886.3 489L900 493L900 425L886.3 422C872.7 419 845.3 413 818 417C790.7 421 763.3 435 736.2 433C709 431 682 413 654.8 392C627.7 371 600.3 347 573 357C545.7 367 518.3 411 491 419C463.7 427 436.3 399 409 391C381.7 383 354.3 395 327 394C299.7 393 272.3 379 245.2 392C218 405 191 445 163.8 447C136.7 449 109.3 413 82 406C54.7 399 27.3 421 13.7 432L0 443Z" fill="#641a2b"></path><path d="M0 601L13.7 601C27.3 601 54.7 601 82 601C109.3 601 136.7 601 163.8 601C191 601 218 601 245.2 601C272.3 601 299.7 601 327 601C354.3 601 381.7 601 409 601C436.3 601 463.7 601 491 601C518.3 601 545.7 601 573 601C600.3 601 627.7 601 654.8 601C682 601 709 601 736.2 601C763.3 601 790.7 601 818 601C845.3 601 872.7 601 886.3 601L900 601L900 491L886.3 487C872.7 483 845.3 475 818 477C790.7 479 763.3 491 736.2 487C709 483 682 463 654.8 441C627.7 419 600.3 395 573 403C545.7 411 518.3 451 491 465C463.7 479 436.3 467 409 461C381.7 455 354.3 455 327 448C299.7 441 272.3 427 245.2 437C218 447 191 481 163.8 484C136.7 487 109.3 459 82 452C54.7 445 27.3 459 13.7 466L0 473Z" fill="#571827"></path></svg>